<?xml version="1.0" encoding="UTF-8" standalone="no"?>
<!-- Generator: Adobe Illustrator 24.3.0, SVG Export Plug-In . SVG Version: 6.00 Build 0)  -->

<svg
   xmlns:dc="http://purl.org/dc/elements/1.1/"
   xmlns:cc="http://creativecommons.org/ns#"
   xmlns:rdf="http://www.w3.org/1999/02/22-rdf-syntax-ns#"
   xmlns:svg="http://www.w3.org/2000/svg"
   xmlns="http://www.w3.org/2000/svg"
   xmlns:sodipodi="http://sodipodi.sourceforge.net/DTD/sodipodi-0.dtd"
   xmlns:inkscape="http://www.inkscape.org/namespaces/inkscape"
   version="1.1"
   id="Ebene_1"
   x="0px"
   y="0px"
   viewBox="0 0 535.63073 90.999996"
   xml:space="preserve"
   sodipodi:docname="logo.svg"
   width="535.63074"
   height="91"
   inkscape:version="0.92.4 (5da689c313, 2019-01-14)"><metadata
   id="metadata82"><rdf:RDF><cc:Work
       rdf:about=""><dc:format>image/svg+xml</dc:format><dc:type
         rdf:resource="http://purl.org/dc/dcmitype/StillImage" /><dc:title /></cc:Work></rdf:RDF></metadata><defs
   id="defs80" /><sodipodi:namedview
   pagecolor="#ffffff"
   bordercolor="#666666"
   borderopacity="1"
   objecttolerance="10"
   gridtolerance="10"
   guidetolerance="10"
   inkscape:pageopacity="0"
   inkscape:pageshadow="2"
   inkscape:window-width="2400"
   inkscape:window-height="1271"
   id="namedview78"
   showgrid="false"
   inkscape:zoom="2.2426716"
   inkscape:cx="195.58628"
   inkscape:cy="1.5860224"
   inkscape:window-x="-9"
   inkscape:window-y="-9"
   inkscape:window-maximized="1"
   inkscape:current-layer="Ebene_1" />
<style
   type="text/css"
   id="style2">
	.st0{fill:#180F00;}
	.st1{fill:url(#SVGID_1_);}
	.st2{fill:#F7A823;}
	.st3{fill:#E4003A;}
</style>

<g
   id="g56"
   transform="translate(-154.03141,-202.13)">
	<path
   class="st0"
   d="M 508.97,203.44 H 496.1 c -0.79,0 -1.39,0.24 -1.79,0.72 -0.4,0.48 -0.63,1.07 -0.69,1.79 l -2.71,30.97 h -39.67 l 2.72,-31.09 c 0.08,-0.95 -0.12,-1.59 -0.61,-1.91 -0.49,-0.32 -0.97,-0.48 -1.45,-0.48 h -12.86 c -0.79,0 -1.39,0.24 -1.79,0.72 -0.4,0.48 -0.63,1.07 -0.69,1.79 l -7.31,83.5 c -0.14,1.59 0.54,2.38 2.05,2.38 h 12.51 c 1.75,0 2.69,-0.79 2.83,-2.38 l 3.13,-35.74 h 39.67 l -3.13,35.74 c -0.14,1.59 0.54,2.38 2.05,2.38 h 12.51 c 1.67,0 2.57,-0.79 2.71,-2.38 l 7.32,-83.62 c 0.08,-0.95 -0.1,-1.59 -0.55,-1.91 -0.44,-0.32 -0.9,-0.48 -1.38,-0.48 z"
   id="h"
   inkscape:connector-curvature="0"
   style="fill:#180f00" />
	<path
   class="st0"
   d="m 607,203.44 h -12.86 c -1.59,0 -2.46,0.83 -2.6,2.5 l -0.56,6.39 c -3.08,-2.67 -6.57,-4.88 -10.5,-6.63 -5.35,-2.38 -11.16,-3.57 -17.44,-3.57 -6.27,0 -12.27,1.19 -18,3.57 -5.73,2.38 -10.82,5.62 -15.26,9.71 -4.45,4.09 -8.08,8.89 -10.91,14.41 -2.83,5.52 -4.52,11.46 -5.07,17.81 -0.55,6.27 0.11,12.17 1.97,17.69 1.86,5.52 4.65,10.33 8.39,14.41 3.73,4.09 8.25,7.33 13.56,9.71 5.31,2.38 11.1,3.57 17.38,3.57 6.27,0 12.29,-1.19 18.06,-3.57 4.23,-1.75 8.11,-3.96 11.66,-6.63 l -0.58,6.63 c -0.14,1.59 0.58,2.38 2.17,2.38 h 12.86 c 1.51,0 2.33,-0.79 2.47,-2.38 l 7.31,-83.5 c 0.15,-1.67 -0.54,-2.5 -2.05,-2.5 z m -29.64,64.5 c -2.73,2.58 -5.87,4.63 -9.41,6.13 -3.55,1.51 -7.35,2.26 -11.39,2.26 -3.97,0 -7.6,-0.75 -10.88,-2.26 -3.28,-1.51 -6.06,-3.55 -8.34,-6.13 -2.28,-2.58 -3.96,-5.62 -5.04,-9.11 -1.08,-3.49 -1.45,-7.22 -1.1,-11.2 0.35,-4.05 1.38,-7.82 3.07,-11.32 1.69,-3.49 3.91,-6.53 6.63,-9.11 2.73,-2.58 5.86,-4.62 9.41,-6.13 3.54,-1.51 7.3,-2.26 11.28,-2.26 4.05,0 7.71,0.75 11,2.26 3.28,1.51 6.06,3.55 8.34,6.13 2.27,2.58 3.97,5.62 5.1,9.11 1.12,3.5 1.51,7.27 1.15,11.32 -0.35,3.97 -1.39,7.7 -3.12,11.2 -1.74,3.49 -3.97,6.53 -6.7,9.11 z"
   id="a"
   inkscape:connector-curvature="0"
   style="fill:#180f00" />
	<path
   class="st0"
   d="m 689.65,204.33 c -0.07,-0.6 -0.54,-0.89 -1.41,-0.89 h -15.37 c -0.64,0 -1.24,0.08 -1.81,0.24 -0.57,0.16 -1.25,0.64 -2.03,1.43 l -36.28,37.52 3.22,-36.81 c 0.07,-0.79 -0.18,-1.39 -0.74,-1.79 -0.56,-0.4 -1.08,-0.6 -1.56,-0.6 h -12.63 c -1.51,0 -2.33,0.79 -2.47,2.38 l -7.32,83.62 c -0.14,1.59 0.54,2.38 2.05,2.38 h 12.86 c 1.51,0 2.33,-0.79 2.47,-2.38 l 2.07,-23.71 11.73,-11.55 23.82,35.5 c 0.42,0.64 0.85,1.15 1.29,1.55 0.44,0.4 1.02,0.59 1.73,0.59 h 17.27 c 0.87,0 1.43,-0.28 1.68,-0.83 0.25,-0.55 0.12,-1.19 -0.37,-1.91 l -32.6,-48.12 33.66,-34.78 c 0.58,-0.63 0.81,-1.24 0.74,-1.84 z"
   id="k"
   inkscape:connector-curvature="0"
   style="fill:#180f00" />
</g>
<g
   id="g62"
   transform="translate(-154.03141,-202.13)">
	<path
   class="st0"
   d="m 204.12,203.44 h -11.2 c -1.99,0 -3.07,1.03 -3.25,3.1 l -5.41,61.82 c -0.2,2.22 -1.18,4.13 -2.94,5.72 -1.77,1.59 -3.8,2.38 -6.1,2.38 -2.7,0 -4.68,-0.54 -5.93,-1.61 -1.26,-1.07 -2.29,-1.93 -3.11,-2.56 -0.37,-0.32 -0.81,-0.48 -1.33,-0.48 -0.52,0 -1.25,0.44 -2.2,1.31 l -7.71,7.74 c -0.35,0.4 -0.63,0.85 -0.83,1.37 -0.2,0.52 -0.02,1.09 0.56,1.73 2.52,2.94 5.46,5.2 8.82,6.79 3.36,1.59 6.98,2.38 10.87,2.38 3.1,0 6.2,-0.56 9.32,-1.67 3.11,-1.11 5.96,-2.8 8.54,-5.06 2.58,-2.26 4.78,-5.12 6.59,-8.58 1.81,-3.45 2.92,-7.48 3.32,-12.09 l 5.15,-58.84 c 0.2,-2.3 -0.86,-3.45 -3.16,-3.45 z"
   id="j"
   inkscape:connector-curvature="0"
   style="fill:#180f00" />
	<path
   class="st0"
   d="m 301.04,229.82 c -1.9,-5.52 -4.74,-10.32 -8.51,-14.41 -3.77,-4.09 -8.33,-7.33 -13.68,-9.71 -5.35,-2.38 -11.16,-3.57 -17.44,-3.57 -6.27,0 -12.27,1.19 -18,3.57 -5.73,2.38 -10.82,5.62 -15.26,9.71 -4.45,4.09 -8.08,8.89 -10.91,14.41 -2.83,5.52 -4.52,11.46 -5.07,17.81 -0.55,6.27 0.11,12.17 1.97,17.69 1.86,5.52 4.65,10.33 8.39,14.41 3.73,4.09 8.25,7.33 13.56,9.71 5.31,2.38 11.1,3.57 17.38,3.57 6.27,0 12.29,-1.19 18.06,-3.57 5.77,-2.38 10.89,-5.62 15.38,-9.71 4.49,-4.09 8.16,-8.89 11.03,-14.41 2.86,-5.52 4.57,-11.42 5.12,-17.69 0.55,-6.35 -0.12,-12.29 -2.02,-17.81 z m -15.5,17.81 c -0.35,3.97 -1.39,7.7 -3.12,11.2 -1.74,3.5 -3.97,6.53 -6.69,9.11 -2.73,2.58 -5.87,4.63 -9.41,6.13 -3.55,1.51 -7.35,2.26 -11.39,2.26 -3.97,0 -7.6,-0.75 -10.88,-2.26 -3.28,-1.51 -6.06,-3.55 -8.34,-6.13 -2.28,-2.58 -3.96,-5.62 -5.04,-9.11 -1.08,-3.49 -1.45,-7.22 -1.1,-11.2 0.35,-4.05 1.38,-7.82 3.07,-11.32 1.69,-3.49 3.91,-6.53 6.63,-9.11 2.73,-2.58 5.86,-4.62 9.41,-6.13 3.54,-1.51 7.3,-2.26 11.28,-2.26 4.05,0 7.71,0.75 11,2.26 3.28,1.51 6.06,3.55 8.34,6.13 2.27,2.58 3.97,5.62 5.1,9.11 1.11,3.5 1.49,7.27 1.14,11.32 z"
   id="o"
   inkscape:connector-curvature="0"
   style="fill:#180f00" />
</g>
<linearGradient
   id="SVGID_1_"
   gradientUnits="userSpaceOnUse"
   x1="321.54001"
   y1="347.23499"
   x2="416.82721"
   y2="347.23499"
   gradientTransform="matrix(1,0,0,-1,-154.03141,392.87)">
	<stop
   offset="0"
   style="stop-color:#1A2E3C"
   id="stop64" />
	<stop
   offset="0.3991"
   style="stop-color:#005577"
   id="stop66" />
	<stop
   offset="0.7991"
   style="stop-color:#80CCDB"
   id="stop68" />
</linearGradient>
<path
   class="st1"
   d="m 262.77859,7.93 c 0.27,-3.89 -2.66,-7.05 -6.55,-7.05 h -75.41 c -3.89,0 -7.27,3.16 -7.54,7.05 l -5.77,82.46 h 22.38 l 3.71,-53.1 c 0.54,-7.75 7.26,-14.03 15.01,-14.03 h 53.1 z"
   id="blue"
   inkscape:connector-curvature="0"
   style="fill:url(#SVGID_1_)" />
<path
   class="st2"
   d="m 217.96859,68.01 h -15.33 l -1.56,22.38 h 22.38 l 1.07,-15.33 c 0.26,-3.89 -2.67,-7.05 -6.56,-7.05 z"
   id="orange"
   inkscape:connector-curvature="0"
   style="fill:#f7a823" />
<path
   class="st3"
   d="m 212.02859,34.45 c -3.89,0 -7.27,3.16 -7.54,7.05 l -1.07,15.33 h 26.52 c 3.89,0 6.83,3.16 6.55,7.05 l -1.85,26.52 h 22.38 l 3.42,-48.89 c 0.27,-3.89 -2.66,-7.05 -6.55,-7.05 z"
   id="red"
   inkscape:connector-curvature="0"
   style="fill:#e4003a" />
</svg>